<mxfile host="Electron" modified="2023-05-07T17:18:26.716Z" agent="Mozilla/5.0 (X11; Linux x86_64) AppleWebKit/537.36 (KHTML, like Gecko) draw.io/21.2.8 Chrome/112.0.5615.165 Electron/24.2.0 Safari/537.36" etag="tsY5--d5Jjo25cmwVdHL" version="21.2.8" type="device">
  <diagram name="Page-1" id="Sv9S5X_gmiUZJKZsC9oY">
    <mxGraphModel dx="809" dy="498" grid="1" gridSize="10" guides="1" tooltips="1" connect="1" arrows="1" fold="1" page="1" pageScale="1" pageWidth="850" pageHeight="1100" math="0" shadow="0">
      <root>
        <mxCell id="0" />
        <mxCell id="1" parent="0" />
        <mxCell id="lca3ryRltw2XRw9sLzal-15" value="" style="rounded=0;whiteSpace=wrap;html=1;" vertex="1" parent="1">
          <mxGeometry x="315" y="160" width="255" height="350" as="geometry" />
        </mxCell>
        <mxCell id="lca3ryRltw2XRw9sLzal-1" value="Listar chaves&lt;br&gt;de API" style="ellipse;whiteSpace=wrap;html=1;" vertex="1" parent="1">
          <mxGeometry x="320" y="260" width="90" height="50" as="geometry" />
        </mxCell>
        <mxCell id="lca3ryRltw2XRw9sLzal-2" value="Cadastrar chave de API" style="ellipse;whiteSpace=wrap;html=1;" vertex="1" parent="1">
          <mxGeometry x="450" y="340" width="90" height="50" as="geometry" />
        </mxCell>
        <mxCell id="lca3ryRltw2XRw9sLzal-3" value="Deletar chave de API" style="ellipse;whiteSpace=wrap;html=1;" vertex="1" parent="1">
          <mxGeometry x="450" y="180" width="90" height="50" as="geometry" />
        </mxCell>
        <mxCell id="lca3ryRltw2XRw9sLzal-4" value="Checar conexão com a rede social" style="ellipse;whiteSpace=wrap;html=1;" vertex="1" parent="1">
          <mxGeometry x="435" y="440" width="120" height="60" as="geometry" />
        </mxCell>
        <mxCell id="lca3ryRltw2XRw9sLzal-8" value="" style="endArrow=classic;html=1;rounded=0;" edge="1" parent="1" source="lca3ryRltw2XRw9sLzal-3" target="lca3ryRltw2XRw9sLzal-1">
          <mxGeometry relative="1" as="geometry">
            <mxPoint x="400" y="320" as="sourcePoint" />
            <mxPoint x="500" y="320" as="targetPoint" />
          </mxGeometry>
        </mxCell>
        <mxCell id="lca3ryRltw2XRw9sLzal-9" value="&amp;lt;&amp;lt;inherits&amp;gt;&amp;gt;" style="edgeLabel;resizable=0;html=1;align=center;verticalAlign=middle;" connectable="0" vertex="1" parent="lca3ryRltw2XRw9sLzal-8">
          <mxGeometry relative="1" as="geometry" />
        </mxCell>
        <mxCell id="lca3ryRltw2XRw9sLzal-10" value="" style="endArrow=classic;html=1;rounded=0;" edge="1" parent="1" source="lca3ryRltw2XRw9sLzal-2" target="lca3ryRltw2XRw9sLzal-1">
          <mxGeometry relative="1" as="geometry">
            <mxPoint x="475" y="234" as="sourcePoint" />
            <mxPoint x="405" y="276" as="targetPoint" />
          </mxGeometry>
        </mxCell>
        <mxCell id="lca3ryRltw2XRw9sLzal-11" value="&amp;lt;&amp;lt;inherits&amp;gt;&amp;gt;" style="edgeLabel;resizable=0;html=1;align=center;verticalAlign=middle;" connectable="0" vertex="1" parent="lca3ryRltw2XRw9sLzal-10">
          <mxGeometry relative="1" as="geometry" />
        </mxCell>
        <mxCell id="lca3ryRltw2XRw9sLzal-13" value="" style="endArrow=classic;html=1;rounded=0;" edge="1" parent="1" source="lca3ryRltw2XRw9sLzal-2" target="lca3ryRltw2XRw9sLzal-4">
          <mxGeometry relative="1" as="geometry">
            <mxPoint x="475" y="356" as="sourcePoint" />
            <mxPoint x="405" y="314" as="targetPoint" />
          </mxGeometry>
        </mxCell>
        <mxCell id="lca3ryRltw2XRw9sLzal-14" value="&amp;lt;&amp;lt;includes&amp;gt;&amp;gt;" style="edgeLabel;resizable=0;html=1;align=center;verticalAlign=middle;" connectable="0" vertex="1" parent="lca3ryRltw2XRw9sLzal-13">
          <mxGeometry relative="1" as="geometry" />
        </mxCell>
        <mxCell id="lca3ryRltw2XRw9sLzal-16" value="Gerenciamento de chaves de API" style="text;html=1;strokeColor=none;fillColor=none;align=center;verticalAlign=middle;whiteSpace=wrap;rounded=0;" vertex="1" parent="1">
          <mxGeometry x="315" y="160" width="110" height="30" as="geometry" />
        </mxCell>
        <mxCell id="lca3ryRltw2XRw9sLzal-17" value="Usuário" style="shape=umlActor;verticalLabelPosition=bottom;verticalAlign=top;html=1;outlineConnect=0;" vertex="1" parent="1">
          <mxGeometry x="180" y="240" width="30" height="60" as="geometry" />
        </mxCell>
        <mxCell id="lca3ryRltw2XRw9sLzal-21" value="" style="endArrow=none;html=1;rounded=0;" edge="1" parent="1" source="lca3ryRltw2XRw9sLzal-17" target="lca3ryRltw2XRw9sLzal-1">
          <mxGeometry width="50" height="50" relative="1" as="geometry">
            <mxPoint x="390" y="380" as="sourcePoint" />
            <mxPoint x="440" y="330" as="targetPoint" />
          </mxGeometry>
        </mxCell>
        <mxCell id="lca3ryRltw2XRw9sLzal-22" value="" style="endArrow=none;html=1;rounded=0;" edge="1" parent="1" source="lca3ryRltw2XRw9sLzal-17" target="lca3ryRltw2XRw9sLzal-2">
          <mxGeometry width="50" height="50" relative="1" as="geometry">
            <mxPoint x="390" y="380" as="sourcePoint" />
            <mxPoint x="440" y="330" as="targetPoint" />
          </mxGeometry>
        </mxCell>
        <mxCell id="lca3ryRltw2XRw9sLzal-23" value="" style="endArrow=none;html=1;rounded=0;" edge="1" parent="1" source="lca3ryRltw2XRw9sLzal-17" target="lca3ryRltw2XRw9sLzal-3">
          <mxGeometry width="50" height="50" relative="1" as="geometry">
            <mxPoint x="390" y="380" as="sourcePoint" />
            <mxPoint x="440" y="330" as="targetPoint" />
          </mxGeometry>
        </mxCell>
        <mxCell id="lca3ryRltw2XRw9sLzal-24" value="" style="endArrow=none;html=1;rounded=0;" edge="1" parent="1" source="lca3ryRltw2XRw9sLzal-17" target="lca3ryRltw2XRw9sLzal-4">
          <mxGeometry width="50" height="50" relative="1" as="geometry">
            <mxPoint x="390" y="380" as="sourcePoint" />
            <mxPoint x="440" y="330" as="targetPoint" />
          </mxGeometry>
        </mxCell>
      </root>
    </mxGraphModel>
  </diagram>
</mxfile>
